Coordinates
version=1
nRows=11
nColumns=40
inDegrees=yes

Units are S.I. units (second, meters, Newtons, ...)
Angles are in degrees.

endheader
time	pelvis_tilt	pelvis_list	pelvis_rotation	pelvis_tx	pelvis_ty	pelvis_tz	hip_flexion_r	hip_adduction_r	hip_rotation_r	knee_angle_r	knee_angle_r_beta	ankle_angle_r	subtalar_angle_r	mtp_angle_r	hip_flexion_l	hip_adduction_l	hip_rotation_l	knee_angle_l	knee_angle_l_beta	ankle_angle_l	subtalar_angle_l	mtp_angle_l	lumbar_extension	lumbar_bending	lumbar_rotation	arm_flex_r	arm_add_r	arm_rot_r	elbow_flex_r	pro_sup_r	wrist_flex_r	wrist_dev_r	arm_flex_l	arm_add_l	arm_rot_l	elbow_flex_l	pro_sup_l	wrist_flex_l	wrist_dev_l
      9.01664286	     -7.83069129	     -9.27773548	      2.78181465	      0.97260985	      0.91128068	      0.51035842	     -0.95837349	      8.62349840	    -19.56544548	      4.02106280	      4.02106280	     14.45276481	     10.04316241	     -4.32575891	     38.28586680	    -13.03274152	     -0.10817519	     22.65161910	     22.65161910	      4.64922580	    -10.37698768	     13.30192958	    -11.27137585	      7.37448797	      5.13235974	     52.09845923	    -17.45704007	      3.91069493	     97.62674561	     44.34871355	      0.00000000	      0.00000000	    -22.69512354	     -7.03719013	     -1.92329524	     26.60603074	     45.29092272	      0.00000000	      0.00000000
      9.02828571	     -7.85063064	     -9.30486264	      2.63803838	      0.97375358	      0.90986066	      0.50799706	     -1.35462986	      8.43033506	    -18.94148689	      4.55811124	      4.55811124	     15.30481140	      9.33007371	     -3.47326671	     37.55334222	    -12.86745337	     -0.54030999	     22.37764200	     22.37764200	      2.56528257	    -11.49322145	      9.90701789	    -11.05638784	      7.42320083	      5.25726249	     52.26554049	    -17.53328397	      4.01577021	    101.01593983	     44.29571149	      0.00000000	      0.00000000	    -23.32638939	     -7.03113512	     -1.63032424	     27.02130187	     45.27454143	      0.00000000	      0.00000000
      9.03992857	     -7.89477679	     -9.23159768	      2.52609648	      0.97476768	      0.90872426	      0.50542043	     -1.66153481	      8.07082718	    -18.65606603	      5.19257761	      5.19257761	     15.99793274	      9.05021339	     -3.08959088	     37.05072643	    -12.63342791	     -0.89899686	     22.61471352	     22.61471352	      1.32870909	    -12.31790406	      7.99339914	    -10.78012068	      7.37384648	      5.05456656	     52.69841437	    -17.07119295	      3.90348856	    102.81398694	     44.30630126	      0.00000000	      0.00000000	    -23.60619658	     -6.93552006	     -1.10754887	     26.60639728	     45.24056268	      0.00000000	      0.00000000
      9.05157143	     -7.92214105	     -9.09470738	      2.46813689	      0.97558053	      0.90795147	      0.50259000	     -1.92602031	      7.61370775	    -18.41634905	      5.88540777	      5.88540777	     16.45790145	      8.70053279	     -3.14010594	     36.75051581	    -12.35115160	     -1.13334971	     23.32705034	     23.32705034	      1.07384849	    -12.80328798	      7.69707098	    -10.56685055	      7.26648785	      4.60857003	     53.14391058	    -16.48683555	      4.00694117	    104.28941843	     44.26964517	      0.00000000	      0.00000000	    -23.79421541	     -6.72927034	     -0.98158469	     26.43424570	     45.22739621	      0.00000000	      0.00000000
      9.06321429	     -7.99464144	     -8.87599921	      2.42366668	      0.97618934	      0.90750784	      0.49959761	     -2.03154050	      7.02417619	    -18.17988338	      6.76026348	      6.76026348	     16.89210601	      8.22400063	     -3.06683466	     36.52505065	    -11.97285549	     -1.15965836	     24.10348644	     24.10348644	      0.96314801	    -13.35958790	      7.22379740	    -10.38353165	      7.05638583	      4.28815094	     53.17460441	    -16.16871327	      4.01248184	    106.14904637	     44.22590430	      0.00000000	      0.00000000	    -23.72112307	     -6.61396556	     -0.85701632	     26.29294879	     45.22204818	      0.00000000	      0.00000000
      9.07485714	     -7.96032485	     -8.59967168	      2.46285956	      0.97683253	      0.90766199	      0.49635336	     -2.46577801	      6.43475991	    -18.05868932	      7.18386934	      7.18386934	     16.98739207	      8.03607876	     -3.04791195	     36.19863422	    -11.52961690	     -1.14424058	     24.92044638	     24.92044638	      1.25316083	    -13.71892255	      6.92519488	    -10.25318455	      6.77350705	      3.97530747	     53.09088940	    -16.05739822	      4.02531212	    106.69843314	     44.21069355	      0.00000000	      0.00000000	    -23.37164059	     -6.53610355	     -0.80970049	     26.35037132	     45.22282338	      0.00000000	      0.00000000
      9.08650000	     -8.04821551	     -8.35555580	      2.42506259	      0.97706210	      0.90795301	      0.49305078	     -2.14913162	      5.66022704	    -17.91965945	      8.80041205	      8.80041205	     17.54644661	      7.45329859	     -2.61143447	     36.02620192	    -11.11807017	     -1.01152205	     25.72552517	     25.72552517	      1.62655154	    -14.23737365	      6.76085150	    -10.27282683	      6.57028042	      4.49844397	     51.97475002	    -16.83687995	      3.20110196	    110.97354296	     44.14677023	      0.00000000	      0.00000000	    -22.34531596	     -6.71322233	     -0.40264142	     25.77630130	     45.21880149	      0.00000000	      0.00000000
      9.09814286	     -8.02336762	     -8.09872584	      2.43614891	      0.97735537	      0.90872777	      0.48958218	     -2.14070691	      4.92857459	    -17.86157946	     10.00886244	     10.00886244	     17.60778569	      7.07475958	     -2.74287609	     35.67937005	    -10.71459168	     -0.97568112	     26.43871295	     26.43871295	      2.31329952	    -14.43968297	      6.53547964	    -10.27977881	      6.37808725	      4.00950192	     51.49397706	    -16.52501954	      3.27622773	    112.14344350	     44.11567882	      0.00000000	      0.00000000	    -21.79118591	     -6.61218070	     -0.25172363	     25.75479873	     45.21246309	      0.00000000	      0.00000000
      9.10978571	     -8.14240582	     -7.80736506	      2.42702378	      0.97735169	      0.90966888	      0.48600763	     -1.71802567	      4.06210124	    -17.87953021	     11.67159164	     11.67159164	     17.54939594	      6.55513289	     -3.03080917	     35.38618219	    -10.26843399	     -1.03822574	     26.93259260	     26.93259260	      3.09325943	    -14.52050070	      6.62179887	    -10.21180845	      6.12990318	      3.81859928	     50.55493931	    -16.66201044	      3.16237587	    114.02258885	     44.07247897	      0.00000000	      0.00000000	    -20.86341090	     -6.60129735	     -0.07201806	     25.80196384	     45.21229874	      0.00000000	      0.00000000
      9.12142857	     -8.21111633	     -7.54175570	      2.39782566	      0.97744228	      0.91094131	      0.48237645	     -1.33293205	      3.22285438	    -17.87523855	     13.34882744	     13.34882744	     17.30417772	      5.95405497	     -3.44401355	     34.92893924	     -9.86078120	     -1.19383395	     27.24237707	     27.24237707	      3.99567741	    -14.51849033	      6.72077241	    -10.16631721	      5.97486775	      3.76659629	     49.37104368	    -16.98701292	      2.97585336	    115.61908630	     44.03818781	      0.00000000	      0.00000000	    -19.79501345	     -6.59262321	      0.09884184	     25.94386467	     45.21419202	      0.00000000	      0.00000000
      9.13307143	     -8.24382762	     -7.40129499	      2.33238124	      0.97743795	      0.91245686	      0.47893980	     -0.86820840	      2.52867317	    -17.65049412	     15.15351739	     15.15351739	     16.57293066	      5.05224999	     -4.62478511	     34.39801468	     -9.57270685	     -1.17482712	     27.46260428	     27.46260428	      5.18053998	    -14.38048119	      7.51626960	    -10.22245968	      5.84976013	      4.59170951	     47.27409936	    -18.20834150	      1.93164646	    118.47071159	     44.01841668	      0.00000000	      0.00000000	    -18.11757206	     -6.84235329	      0.68397248	     25.80399784	     45.18263892	      0.00000000	      0.00000000
